<?xml version="1.0" encoding="UTF-8"?>
<svg version="1.1" xmlns="http://www.w3.org/2000/svg" width="512" height="512">
<path d="M0 0 C1.4057758 0.63286434 2.81229197 1.26408627 4.21948242 1.89379883 C7.2483258 3.25056361 10.27394458 4.61420462 13.29785156 5.98193359 C20.6088158 9.28024171 27.96355797 12.47902681 35.31253052 15.69146729 C51.31534614 22.69240133 67.29075113 29.75564769 83.26547241 36.82037354 C95.55154185 42.25339394 107.84345694 47.67281388 120.14465332 53.07150269 C122.666555 54.17830772 125.188264 55.28555087 127.70996094 56.39282227 C135.6913118 59.89643875 143.67519028 63.39413373 151.66427612 66.88008118 C155.46548799 68.539142 159.2656039 70.2007043 163.06561279 71.86251831 C164.88020569 72.65522587 166.69534122 73.44669258 168.51104736 74.23684692 C171.02433586 75.33062591 173.53577797 76.42854492 176.046875 77.52734375 C176.78761261 77.84839081 177.52835022 78.16943787 178.29153442 78.50021362 C188.48788543 82.97577086 188.48788543 82.97577086 190.0625 86.125 C190.32111551 90.65594373 190.33351523 95.19063704 190.35766602 99.72802734 C190.37488302 101.98466691 190.41877122 104.23984237 190.46289062 106.49609375 C190.4730176 107.9322809 190.48153369 109.3684805 190.48828125 110.8046875 C190.51015503 112.76510986 190.51015503 112.76510986 190.5324707 114.76513672 C190.0625 118.125 190.0625 118.125 186.0625 122.125 C182.1025 122.125 178.1425 122.125 174.0625 122.125 C174.0625 164.365 174.0625 206.605 174.0625 250.125 C178.0225 250.125 181.9825 250.125 186.0625 250.125 C190.56271843 254.62521843 190.56271843 254.62521843 192.05444336 257.95849609 C192.39300354 258.70351379 192.73156372 259.44853149 193.0803833 260.21612549 C193.43413025 261.01878845 193.7878772 261.82145142 194.15234375 262.6484375 C194.72441559 263.91430695 194.72441559 263.91430695 195.30804443 265.20574951 C197.41991379 269.89385762 199.48501904 274.60227442 201.5480957 279.31201172 C202.40131806 281.25511888 203.25507664 283.19799067 204.109375 285.140625 C204.53099411 286.10199371 204.95261322 287.06336243 205.38700867 288.05386353 C207.76128793 293.40521818 210.29984695 298.52649314 213.203125 303.609375 C222.63308716 320.78796883 223.19513866 336.38960033 223.125 355.75 C223.12076019 357.02296936 223.11652039 358.29593872 223.1121521 359.60748291 C223.0800386 363.25311615 223.00709374 366.8946192 222.91015625 370.5390625 C222.88940033 371.64809937 222.86864441 372.75713623 222.84725952 373.89978027 C222.78570175 375.43753113 222.78570175 375.43753113 222.72290039 377.00634766 C222.67740807 378.34954575 222.67740807 378.34954575 222.6309967 379.71987915 C221.88797136 382.86337272 220.54208689 384.1149841 218.0625 386.125 C215.68066406 386.57910156 215.68066406 386.57910156 213.078125 386.515625 C211.67626953 386.49628906 211.67626953 386.49628906 210.24609375 386.4765625 C208.79396484 386.42628906 208.79396484 386.42628906 207.3125 386.375 C206.32894531 386.35695313 205.34539062 386.33890625 204.33203125 386.3203125 C201.90786217 386.27324126 199.48567941 386.20750742 197.0625 386.125 C197.02125 386.929375 196.98 387.73375 196.9375 388.5625 C195.72420966 393.50232495 193.02415256 397.04933135 190.0625 401.125 C191.30338379 401.13901855 191.30338379 401.13901855 192.56933594 401.15332031 C196.31766415 401.20700319 200.06474162 401.2906571 203.8125 401.375 C205.11445313 401.38917969 206.41640625 401.40335937 207.7578125 401.41796875 C209.00820313 401.45019531 210.25859375 401.48242188 211.546875 401.515625 C213.27502441 401.5470459 213.27502441 401.5470459 215.03808594 401.57910156 C218.0625 402.125 218.0625 402.125 220.43652344 403.60058594 C222.86027556 407.36358848 222.63598292 410.73445725 222.59375 415.125 C222.5975769 415.99769531 222.60140381 416.87039063 222.60534668 417.76953125 C222.6080649 419.61199092 222.60070994 421.45448924 222.58398438 423.296875 C222.56257248 426.11545934 222.58378801 428.93149485 222.609375 431.75 C222.60673171 433.54167229 222.60160669 435.33334299 222.59375 437.125 C222.60184692 437.96675781 222.60994385 438.80851562 222.61828613 439.67578125 C222.59937317 440.85720703 222.59937317 440.85720703 222.58007812 442.0625 C222.57689575 442.75214844 222.57371338 443.44179688 222.57043457 444.15234375 C221.79848156 447.15036361 220.50277173 448.23138697 218.0625 450.125 C215.31103809 450.51707261 212.96012761 450.66290488 210.21008301 450.62836456 C209.00958895 450.63708521 209.00958895 450.63708521 207.78484249 450.64598203 C205.08607769 450.66065335 202.38821225 450.64666387 199.68945312 450.63293457 C197.74194115 450.63754067 195.79443265 450.64389162 193.84693146 450.65184355 C188.4820545 450.66859995 183.11746077 450.66026187 177.75258255 450.64789867 C171.97199802 450.63887626 166.1914634 450.65280392 160.41088867 450.66381836 C149.08151483 450.68163826 137.75224678 450.67774815 126.42286873 450.6661678 C117.21818292 450.65714738 108.01352684 450.65590343 98.80883789 450.66026306 C97.50056424 450.66087599 96.19229058 450.66148893 94.84437227 450.66212043 C92.18693732 450.66339929 89.52950238 450.66469614 86.87206745 450.6660108 C62.64377352 450.67750327 38.41553314 450.66558499 14.18724835 450.64464041 C-7.94030289 450.62565732 -30.06776206 450.62735581 -52.1953125 450.64648438 C-77.04364708 450.66789306 -101.89193 450.67632803 -126.74027252 450.66403532 C-129.38812764 450.66276108 -132.03598276 450.66150359 -134.68383789 450.66026306 C-136.63821376 450.65933741 -136.63821376 450.65933741 -138.63207197 450.65839306 C-147.8295156 450.65493417 -157.02692665 450.66078009 -166.22436523 450.67018127 C-177.42751476 450.68138049 -188.63055212 450.67840502 -199.83368874 450.6570583 C-205.55362753 450.6465199 -211.27337909 450.64247348 -216.99331665 450.65565491 C-222.22402667 450.66752693 -227.45437496 450.66110231 -232.68505192 450.6397447 C-234.5826993 450.63525654 -236.4803769 450.63759412 -238.37800503 450.64724785 C-240.94747231 450.65932213 -243.51568261 450.64702924 -246.08508301 450.62836456 C-247.20348241 450.64241156 -247.20348241 450.64241156 -248.34447575 450.65674233 C-251.81199172 450.60601615 -253.61944395 450.37180656 -256.39653015 448.21683073 C-258.09266699 445.91436442 -258.44206214 444.88317853 -258.45507812 442.0625 C-258.47399109 440.88107422 -258.47399109 440.88107422 -258.49328613 439.67578125 C-258.48518921 438.83402344 -258.47709229 437.99226563 -258.46875 437.125 C-258.4725769 436.25230469 -258.47640381 435.37960937 -258.48034668 434.48046875 C-258.4830649 432.63800908 -258.47570994 430.79551076 -258.45898438 428.953125 C-258.43757248 426.13454066 -258.45878801 423.31850515 -258.484375 420.5 C-258.48173171 418.70832771 -258.47660669 416.91665701 -258.46875 415.125 C-258.48089539 413.86236328 -258.48089539 413.86236328 -258.49328613 412.57421875 C-258.43544119 408.96085006 -258.29797866 406.72827368 -256.42089844 403.58691406 C-252.89313268 401.51020728 -249.64363885 401.62744169 -245.671875 401.734375 C-244.87847717 401.74003479 -244.08507935 401.74569458 -243.26763916 401.75152588 C-240.74030527 401.77386853 -238.21440335 401.82405824 -235.6875 401.875 C-233.97137468 401.89506786 -232.25522708 401.91331813 -230.5390625 401.9296875 C-226.3379922 401.97372605 -222.13798865 402.04273674 -217.9375 402.125 C-217.95844727 400.81305664 -217.97939453 399.50111328 -218.00097656 398.14941406 C-218.0733797 393.28168656 -218.11930113 388.41400665 -218.15722656 383.54589844 C-218.17734126 381.43904618 -218.20463667 379.33224975 -218.23925781 377.22558594 C-218.28778168 374.19712553 -218.31047016 371.16940322 -218.328125 368.140625 C-218.34877014 367.19882385 -218.36941528 366.25702271 -218.39068604 365.28668213 C-218.39291187 358.79896946 -218.39291187 358.79896946 -216.16308594 355.49902344 C-213.9375 354.125 -213.9375 354.125 -209.9375 354.125 C-209.9375 277.565 -209.9375 201.005 -209.9375 122.125 C-213.8975 122.125 -217.8575 122.125 -221.9375 122.125 C-226.49016493 117.57233507 -226.4475474 116.95711605 -226.46875 110.875 C-226.4725769 110.17987305 -226.47640381 109.48474609 -226.48034668 108.76855469 C-226.4830618 107.30271959 -226.47572835 105.83683572 -226.45898438 104.37109375 C-226.43756419 102.13171025 -226.45879443 99.89553413 -226.484375 97.65625 C-226.48173165 96.22915961 -226.4766065 94.80207121 -226.46875 93.375 C-226.46423828 92.08078125 -226.45972656 90.7865625 -226.45507812 89.453125 C-225.84440432 85.52637722 -225.08699067 84.46829335 -221.9375 82.125 C-219.47192383 80.76318359 -219.47192383 80.76318359 -216.64453125 79.5234375 C-215.56139648 79.04302002 -214.47826172 78.56260254 -213.36230469 78.06762695 C-211.57421387 77.29165161 -211.57421387 77.29165161 -209.75 76.5 C-208.46871829 75.93595077 -207.18780446 75.37106524 -205.90722656 74.80541992 C-203.10086452 73.56803171 -200.29192597 72.33674952 -197.48095703 71.10986328 C-192.76294517 69.05044925 -188.05119893 66.9769313 -183.33984375 64.90234375 C-173.7575168 60.68533099 -164.1686522 56.48330297 -154.57922363 52.2824707 C-146.90573192 48.92033178 -139.23395116 45.55429177 -131.5625 42.1875 C-130.30052795 41.63372177 -130.30052795 41.63372177 -129.01306152 41.0687561 C-115.81195855 35.27503672 -102.62226059 29.45580244 -89.4375 23.625 C-75.56402872 17.48992589 -61.68590222 11.36561552 -47.79760742 5.26416016 C-45.99002974 4.47000704 -44.18257309 3.67557838 -42.37524414 2.88085938 C-39.87814656 1.78298743 -37.380561 0.68623386 -34.8828125 -0.41015625 C-34.14841949 -0.73319229 -33.41402649 -1.05622833 -32.65737915 -1.38905334 C-19.33091783 -7.23240254 -12.94742968 -5.95476657 0 0 Z " fill="#000000" transform="translate(273.9375,45.875)"/>
<path d="M0 0 C1.25075569 0.55664085 1.25075569 0.55664085 2.52677917 1.12452698 C5.27458597 2.34892659 8.01804726 3.58277166 10.76171875 4.81640625 C12.69886428 5.68113305 14.63637014 6.54505306 16.57421875 7.40820312 C19.56903692 8.74230642 22.56360143 10.07695176 25.55703735 11.41415405 C34.50220621 15.40982997 43.46979594 19.35307621 52.44439697 23.28210449 C71.91306782 31.80697145 91.35264504 40.3974311 110.79022217 48.9928894 C119.38302116 52.79246001 127.97816712 56.58670097 136.57421875 60.37890625 C137.26401825 60.68325592 137.95381775 60.98760559 138.66452026 61.30117798 C145.78622706 64.44325358 152.90916684 67.58249172 160.03515625 70.71484375 C161.20804199 71.23046875 162.38092773 71.74609375 163.58935547 72.27734375 C165.76523884 73.23358141 167.9413322 74.18934146 170.11767578 75.14453125 C171.06239746 75.55960937 172.00711914 75.9746875 172.98046875 76.40234375 C173.80095703 76.76247559 174.62144531 77.12260742 175.46679688 77.49365234 C176.80786615 78.09250914 178.13556849 78.72208112 179.44921875 79.37890625 C179.44921875 83.00890625 179.44921875 86.63890625 179.44921875 90.37890625 C52.72921875 90.37890625 -73.99078125 90.37890625 -204.55078125 90.37890625 C-204.55078125 86.74890625 -204.55078125 83.11890625 -204.55078125 79.37890625 C-190.03863807 72.58781058 -175.47202849 65.98486165 -160.75610352 59.64624023 C-159.46108406 59.08841652 -158.16608112 58.53055445 -156.87109375 57.97265625 C-156.21227707 57.68886612 -155.55346039 57.40507599 -154.87467957 57.11268616 C-146.18698509 53.36585505 -137.52541524 49.55936302 -128.86328125 45.75390625 C-128.00274139 45.3759491 -127.14220154 44.99799194 -126.25558472 44.60858154 C-111.95454535 38.3262188 -97.66581736 32.01611418 -83.38058472 25.69790649 C-67.84313147 18.82602631 -52.29163105 11.98653143 -36.73242188 5.1640625 C-35.91307159 4.80473129 -35.09372131 4.44540009 -34.24954224 4.07518005 C-32.74107757 3.41370588 -31.23252158 2.7524399 -29.72384644 2.09144592 C-29.04073395 1.79193527 -28.35762146 1.49242462 -27.65380859 1.18383789 C-26.65108917 0.75060715 -26.65108917 0.75060715 -25.62811279 0.30862427 C-24.15140536 -0.35228204 -22.69102983 -1.05021894 -21.24346924 -1.7727356 C-12.96667772 -5.8059353 -8.00406138 -3.62799825 0 0 Z " fill="#EBAA2B" transform="translate(268.55078125,61.62109375)"/>
<path d="M0 0 C116.16 0 232.32 0 352 0 C352 42.24 352 84.48 352 128 C341.44 128 330.88 128 320 128 C320 112.16 320 96.32 320 80 C321.98 79.01 323.96 78.02 326 77 C327.26120593 73.21638222 327.16237592 69.66116158 327.16796875 65.71875 C327.17129715 64.9088562 327.17462555 64.0989624 327.17805481 63.26452637 C327.18311459 61.55314705 327.18546343 59.84175788 327.18530273 58.13037109 C327.18749171 55.50992658 327.20566398 52.88990142 327.22460938 50.26953125 C327.22754297 48.60677227 327.22952799 46.9440113 327.23046875 45.28125 C327.24124702 44.10459778 327.24124702 44.10459778 327.25224304 42.9041748 C327.23609572 39.0683526 327.17896781 37.26845171 325 34 C322.04979977 33.01659992 320.14134821 32.87198155 317.06614017 32.86577892 C316.04199892 32.86132108 315.01785767 32.85686324 313.96268183 32.85227031 C312.83410098 32.85245467 311.70552014 32.85263903 310.54273987 32.85282898 C309.34651802 32.84915229 308.15029616 32.8454756 306.91782516 32.8416875 C303.59165072 32.83255869 300.26552562 32.82795057 296.93934333 32.82529819 C293.35441119 32.82139562 289.76949334 32.81181744 286.18457031 32.80308533 C277.52573971 32.78332263 268.86690793 32.77325629 260.20806041 32.76435754 C256.13263762 32.75997551 252.05721612 32.75460859 247.98179436 32.74936867 C234.43902767 32.73235882 220.89626179 32.71786288 207.35348606 32.71061993 C203.83909161 32.70870998 200.32469716 32.70678965 196.81030273 32.70483398 C195.93679835 32.70435024 195.06329397 32.7038665 194.16331976 32.7033681 C180.00124617 32.69506109 165.83925687 32.66971179 151.67722011 32.63725331 C137.14514464 32.60421746 122.61311207 32.58617444 108.08099884 32.58297569 C99.91848932 32.58080768 91.75610282 32.57201636 83.59362984 32.54651451 C76.64495127 32.52485514 69.69642559 32.51673359 62.74771709 32.52648129 C59.20083945 32.53103954 55.65427759 32.52905206 52.10744286 32.50971985 C48.26624377 32.48896337 44.42548453 32.49902965 40.58424377 32.51225281 C39.45789365 32.50128356 38.33154352 32.49031432 37.17106158 32.47901267 C36.14431257 32.48759356 35.11756357 32.49617445 34.05970097 32.50501537 C33.17278161 32.50403856 32.28586226 32.50306176 31.37206656 32.50205535 C28.17750295 33.17265873 26.98117146 34.45061634 25 37 C24.62634037 39.91266743 24.4852435 42.43714679 24.5390625 45.34375 C24.53997894 46.14985718 24.54089539 46.95596436 24.5418396 47.78649902 C24.54787117 49.48777163 24.563604 51.18903383 24.58837891 52.89013672 C24.62487314 55.49095894 24.62939822 58.09035475 24.62890625 60.69140625 C24.63873861 62.34636645 24.65039613 64.00131702 24.6640625 65.65625 C24.66628815 66.43238647 24.66851379 67.20852295 24.67080688 68.00817871 C24.66576697 73.37555821 24.66576697 73.37555821 27 78 C28.65 78.66 30.3 79.32 32 80 C32 114.32 32 148.64 32 184 C25.73 184.33 19.46 184.66 13 185 C8.85283088 188.76756681 8.85283088 188.76756681 8.45410156 193.40136719 C8.42452362 194.6922525 8.42452362 194.6922525 8.39434814 196.00921631 C8.39250519 197.38910736 8.39250519 197.38910736 8.390625 198.796875 C8.37408875 199.74564514 8.35755249 200.69441528 8.34051514 201.67193604 C8.29198561 204.69802288 8.27065305 207.72360701 8.25 210.75 C8.22184449 212.80341078 8.19191765 214.85679808 8.16015625 216.91015625 C8.08622516 221.94006279 8.03668067 226.96968944 8 232 C5.36 232 2.72 232 0 232 C0 155.44 0 78.88 0 0 Z " fill="#D5D4CF" transform="translate(80,168)"/>
<path d="M0 0 C60.72 0 121.44 0 184 0 C184 34.32 184 68.64 184 104 C146.71 104 109.42 104 71 104 C69.35 100.7 67.7 97.4 66 94 C61.45540032 86.83881262 53.89351463 83.63117154 46 81 C34.58155235 80.03528351 26.74610162 82.24509933 17.7890625 89.29296875 C13.56126812 93.32691229 10.88700847 98.51052082 9 104 C6.03 104 3.06 104 0 104 C0 69.68 0 35.36 0 0 Z " fill="#0076C2" transform="translate(208,312)"/>
<path d="M0 0 C73.92 0 147.84 0 224 0 C224 5.28 224 10.56 224 16 C221.6661322 16.00364563 219.3322644 16.00729126 216.92767334 16.01104736 C194.97234372 16.04723673 173.01715131 16.10539035 151.06193161 16.18390274 C139.77354438 16.22373945 128.48522732 16.25610838 117.19677734 16.27099609 C107.35961012 16.28398862 97.52259703 16.31089177 87.6855166 16.35461307 C82.4751514 16.37728192 77.26497669 16.39290744 72.0545578 16.39188385 C67.15269507 16.39114044 62.25125427 16.40896254 57.34950066 16.44116783 C55.54836131 16.44970289 53.74717483 16.45139244 51.94602394 16.44580269 C49.49027242 16.43919524 47.0358762 16.45700349 44.58026123 16.48101807 C43.86430526 16.47325765 43.1483493 16.46549723 42.4106977 16.45750165 C39.12991077 16.51446166 37.26220716 16.81546739 34.55278206 18.72227001 C32.72122727 21.40892345 32.52127666 22.73624464 32.57522583 25.96266174 C32.58154526 26.96196213 32.58786469 27.96126251 32.59437561 28.99084473 C32.6214006 30.08127075 32.6484256 31.17169678 32.67626953 32.29516602 C32.68841995 33.44850937 32.70057037 34.60185272 32.71308899 35.79014587 C32.74060561 38.29693628 32.776525 40.80364516 32.81979752 43.31021309 C32.88328038 47.28318785 32.91494801 51.25561932 32.93331909 55.22898865 C32.99018476 66.52696385 33.07194368 77.82378417 33.26367188 89.12036133 C33.3692629 95.3617419 33.42422957 101.60145503 33.42359054 107.84375328 C33.42543029 111.14331768 33.46080646 114.43704926 33.54315567 117.73571968 C34.0693605 139.40878505 34.0693605 139.40878505 28.97235107 144.9772644 C25.60201025 147.91909143 21.94698243 149.92111899 18 152 C16.19929888 153.35708396 14.42055957 154.74503478 12.6875 156.1875 C9.12412178 159 9.12412178 159 8 159 C7.970271 157.47862427 7.970271 157.47862427 7.93994141 155.92651367 C7.86386977 152.16356576 7.77515509 148.40100377 7.68261719 144.63842773 C7.64433382 143.00992451 7.60947976 141.38133691 7.578125 139.75268555 C7.53245998 137.41163986 7.47446923 135.0711747 7.4140625 132.73046875 C7.40251129 132.00224411 7.39096008 131.27401947 7.37905884 130.52372742 C7.27121488 126.83038626 7.10115724 125.15173586 5 122 C1.89188713 121.19458793 1.89188713 121.19458793 -1.625 120.8125 C-3.40777344 120.57466797 -3.40777344 120.57466797 -5.2265625 120.33203125 C-6.14179688 120.22246094 -7.05703125 120.11289062 -8 120 C-8.01981934 118.71311279 -8.03963867 117.42622559 -8.06005859 116.1003418 C-8.13606405 111.33109793 -8.22478924 106.56216119 -8.31738281 101.79321289 C-8.35569348 99.72817035 -8.39054266 97.6630606 -8.421875 95.59790039 C-8.46748014 92.63142862 -8.52548201 89.6654204 -8.5859375 86.69921875 C-8.59748871 85.7741301 -8.60903992 84.84904144 -8.62094116 83.8959198 C-8.64081085 83.03525406 -8.66068054 82.17458832 -8.68115234 81.2878418 C-8.69447601 80.53061325 -8.70779968 79.7733847 -8.7215271 78.99320984 C-8.89708612 76.68394812 -8.89708612 76.68394812 -11 74 C-13.65918166 73.11360611 -15.48064641 72.82010975 -18.23046875 72.68359375 C-19.03291016 72.64169922 -19.83535156 72.59980469 -20.66210938 72.55664062 C-21.49548828 72.51732422 -22.32886719 72.47800781 -23.1875 72.4375 C-24.4549707 72.37272461 -24.4549707 72.37272461 -25.74804688 72.30664062 C-27.83184433 72.20068482 -29.91590103 72.0998498 -32 72 C-32 66.72 -32 61.44 -32 56 C-30.040625 55.773125 -28.08125 55.54625 -26.0625 55.3125 C-18.24082398 54.09541657 -12.85072464 51.7873752 -7.1875 46.25 C3.22212206 30.78427579 -0.64152001 21.81168036 0 0 Z " fill="#B87909" transform="translate(160,280)"/>
<path d="M0 0 C147.84 0 295.68 0 448 0 C448 5.28 448 10.56 448 16 C300.16 16 152.32 16 0 16 C0 10.72 0 5.44 0 0 Z " fill="#D6D5D0" transform="translate(32,464)"/>
<path d="M0 0 C89.76 0 179.52 0 272 0 C272 5.28 272 10.56 272 16 C182.24 16 92.48 16 0 16 C0 10.72 0 5.44 0 0 Z " fill="#D78E0C" transform="translate(120,216)"/>
<path d="M0 0 C84.48 0 168.96 0 256 0 C256 5.28 256 10.56 256 16 C171.52 16 87.04 16 0 16 C0 10.72 0 5.44 0 0 Z " fill="#D78E0C" transform="translate(128,248)"/>
<path d="M0 0 C1.73618591 -0.00006042 1.73618591 -0.00006042 3.50744629 -0.00012207 C5.95179684 0.00523347 8.39614694 0.02281732 10.84033203 0.05175781 C14.58028833 0.09359939 18.31844293 0.09282635 22.05859375 0.0859375 C24.43490834 0.09643055 26.81121365 0.10936926 29.1875 0.125 C30.3053186 0.12520142 31.42313721 0.12540283 32.5748291 0.12561035 C34.14170471 0.14947815 34.14170471 0.14947815 35.74023438 0.17382812 C37.11326721 0.18645691 37.11326721 0.18645691 38.51403809 0.19934082 C41.63433226 0.676399 43.54257635 1.76301627 46.09375 3.59375 C47.34331796 6.09288591 47.23417304 7.81015175 47.25488281 10.60668945 C47.26449036 11.65149979 47.2740979 12.69631012 47.28399658 13.77278137 C47.28824646 14.90608383 47.29249634 16.03938629 47.296875 17.20703125 C47.30257507 18.36873337 47.30827515 19.53043549 47.31414795 20.7273407 C47.32360796 23.18955573 47.33013589 25.65178348 47.33398438 28.11401367 C47.3436831 31.88027073 47.37469508 35.64598065 47.40625 39.41210938 C47.41278055 41.80208009 47.41803082 44.19205471 47.421875 46.58203125 C47.4342218 47.70926102 47.4465686 48.83649078 47.45928955 49.99787903 C47.45628845 51.05214584 47.45328735 52.10641266 47.45019531 53.19262695 C47.45566376 54.57923271 47.45566376 54.57923271 47.46124268 55.99385071 C47.01274027 59.16686932 46.00648083 61.03811993 44.09375 63.59375 C41.10007982 64.59164006 39.07986991 64.731735 35.95141602 64.75488281 C34.37947227 64.76929413 34.37947227 64.76929413 32.77577209 64.78399658 C31.64449387 64.78824646 30.51321564 64.79249634 29.34765625 64.796875 C28.18499741 64.80257507 27.02233856 64.80827515 25.82444763 64.81414795 C23.36401276 64.8235985 20.90356524 64.83013215 18.44311523 64.83398438 C14.67474403 64.84370231 10.90691532 64.87473101 7.13867188 64.90625 C4.75000324 64.9127788 2.36133071 64.91802975 -0.02734375 64.921875 C-1.15659775 64.9342218 -2.28585175 64.9465686 -3.44932556 64.95928955 C-4.50044022 64.95628845 -5.55155487 64.95328735 -6.63452148 64.95019531 C-8.01993385 64.95566376 -8.01993385 64.95566376 -9.43333435 64.96124268 C-12.40517716 64.51960591 -13.75266834 63.66308457 -15.90625 61.59375 C-16.89874837 58.6162549 -17.05561356 56.57901066 -17.09912109 53.46728516 C-17.12321548 51.90018295 -17.12321548 51.90018295 -17.14779663 50.30142212 C-17.19227343 45.53363736 -17.23329304 40.76599045 -17.25634766 35.99804688 C-17.27292624 33.48200239 -17.30024082 30.96600536 -17.33837891 28.45019531 C-17.39307216 24.82331909 -17.41500922 21.19754524 -17.4296875 17.5703125 C-17.45235687 16.44621979 -17.47502625 15.32212708 -17.49838257 14.16397095 C-17.48584185 9.53919286 -17.3915723 6.46515725 -15.11767578 2.38232422 C-10.1738313 -0.37110475 -5.56894735 -0.08168084 0 0 Z " fill="#000000" transform="translate(240.90625,79.40625)"/>
<path d="M0 0 C0.97988892 -0.00004028 1.95977783 -0.00008057 2.96936035 -0.00012207 C5.03709339 0.00522942 7.10482616 0.0227962 9.17236328 0.05175781 C12.33299075 0.09360754 15.49148593 0.09282497 18.65234375 0.0859375 C20.66407727 0.09643071 22.67579983 0.10936952 24.6875 0.125 C25.63032837 0.12520142 26.57315674 0.12540283 27.54455566 0.12561035 C32.42077201 0.21334005 35.92386292 0.34902078 39.84375 3.59375 C41.00418673 5.91462347 40.98225616 7.28788707 41.00488281 9.87231445 C41.01449036 10.75695877 41.0240979 11.64160309 41.03399658 12.55305481 C41.03824646 13.51136703 41.04249634 14.46967926 41.046875 15.45703125 C41.05257507 16.44116501 41.05827515 17.42529877 41.06414795 18.43925476 C41.0736055 20.52484052 41.08013492 22.61044127 41.08398438 24.69604492 C41.09367902 27.88291626 41.124691 31.06913979 41.15625 34.25585938 C41.16278108 36.28124617 41.16803114 38.30663758 41.171875 40.33203125 C41.1842218 41.28427078 41.1965686 42.23651031 41.20928955 43.21760559 C41.18065649 51.74809723 41.18065649 51.74809723 37.84375 55.59375 C35.05300837 56.52399721 33.32291725 56.72963179 30.43579102 56.75488281 C29.1040963 56.76929413 29.1040963 56.76929413 27.74549866 56.78399658 C26.78921066 56.78824646 25.83292267 56.79249634 24.84765625 56.796875 C23.86256577 56.80257507 22.87747528 56.80827515 21.86253357 56.81414795 C19.77872796 56.82359434 17.69490744 56.8301305 15.61108398 56.83398438 C12.42209919 56.84370171 9.23375572 56.87473346 6.04492188 56.90625 C4.02083716 56.91277901 1.99674784 56.91802988 -0.02734375 56.921875 C-0.98160751 56.9342218 -1.93587128 56.9465686 -2.91905212 56.95928955 C-3.81000076 56.95628845 -4.7009494 56.95328735 -5.61889648 56.95019531 C-6.40038559 56.95384094 -7.18187469 56.95748657 -7.98704529 56.96124268 C-10.75759115 56.49187466 -12.1177296 55.5019854 -14.15625 53.59375 C-15.0800699 50.8222903 -15.3016925 49.06969756 -15.34912109 46.20166016 C-15.36518402 45.31709137 -15.38124695 44.43252258 -15.39779663 43.52114868 C-15.4423485 39.48611327 -15.4832928 35.45123942 -15.50634766 31.41601562 C-15.5229222 29.28797481 -15.55023175 27.15999 -15.58837891 25.03222656 C-15.64313194 21.96129534 -15.66501728 18.891666 -15.6796875 15.8203125 C-15.70235687 14.87121002 -15.72502625 13.92210754 -15.74838257 12.94424438 C-15.73461695 8.64134607 -15.53939824 6.21997607 -13.25830078 2.49169922 C-8.81759096 -0.22529104 -5.11453163 -0.08893888 0 0 Z " fill="#000000" transform="translate(311.15625,335.40625)"/>
<path d="M0 0 C5.28 0 10.56 0 16 0 C16.01981934 1.97838867 16.03963867 3.95677734 16.06005859 5.99511719 C16.12784077 12.53310298 16.204617 19.07093478 16.28752708 25.60874557 C16.33746426 29.57246147 16.38379444 33.53615105 16.421875 37.5 C16.45876052 41.3256299 16.50512918 45.15103826 16.55806351 48.97647858 C16.57659013 50.43566246 16.59170451 51.8948938 16.60334396 53.35414886 C16.62023638 55.39876471 16.64927753 57.4428751 16.68115234 59.48730469 C16.69447601 60.65090515 16.70779968 61.81450562 16.7215271 63.0133667 C16.99181604 65.91222667 17.39549905 67.59637241 19 70 C21.46423896 71.23211948 23.15234663 71.15779908 25.90869141 71.20532227 C27.44005234 71.2352401 27.44005234 71.2352401 29.00234985 71.26576233 C30.10759003 71.28247482 31.2128302 71.29918732 32.3515625 71.31640625 C33.4807309 71.33718735 34.60989929 71.35796844 35.77328491 71.37937927 C39.39045972 71.44491335 43.00770881 71.50377774 46.625 71.5625 C49.07292444 71.60568154 51.52084128 71.64929571 53.96875 71.69335938 C59.97909155 71.80141504 65.98948716 71.90046015 72 72 C72 82.56 72 93.12 72 104 C69.03 104 66.06 104 63 104 C62.69707031 103.34773438 62.39414062 102.69546875 62.08203125 102.0234375 C56.82114453 91.04841843 52.17597547 86.88749924 41 82 C34.47258101 79.82419367 26.55304566 79.94769371 20.1875 82.625 C10.66014718 87.62467506 4.54350063 93.69163453 1 104 C0.67 104 0.34 104 0 104 C0 69.68 0 35.36 0 0 Z " fill="#0076C2" transform="translate(408,312)"/>
<path d="M0 0 C34.65 0 69.3 0 105 0 C105 5.28 105 10.56 105 16 C67.38 16 29.76 16 -9 16 C-6.69 12.04 -4.38 8.08 -2 4 C-1.34 2.68 -0.68 1.36 0 0 Z " fill="#B87909" transform="translate(279,432)"/>
<path d="M0 0 C3.63 0 7.26 0 11 0 C16.02912284 10.68978647 20.95061734 21.42569562 25.79125977 32.20214844 C26.56556877 33.9232749 27.34232459 35.64330236 28.12133789 37.36230469 C29.26205262 39.8797767 30.39551101 42.40039958 31.52734375 44.921875 C31.87723862 45.69053894 32.22713348 46.45920288 32.58763123 47.25115967 C35 52.65764871 35 52.65764871 35 56 C23.45 56 11.9 56 0 56 C0 37.52 0 19.04 0 0 Z " fill="#9FDAFD" transform="translate(440,312)"/>
<path d="M0 0 C10.56 0 21.12 0 32 0 C32 10.56 32 21.12 32 32 C21.44 32 10.88 32 0 32 C0 21.44 0 10.88 0 0 Z " fill="#D78E0C" transform="translate(120,416)"/>
<path d="M0 0 C10.56 0 21.12 0 32 0 C32 10.56 32 21.12 32 32 C21.44 32 10.88 32 0 32 C0 21.44 0 10.88 0 0 Z " fill="#B97A0A" transform="translate(72,416)"/>
<path d="M0 0 C10.56 0 21.12 0 32 0 C32 10.56 32 21.12 32 32 C21.44 32 10.88 32 0 32 C0 21.44 0 10.88 0 0 Z " fill="#ECAB2C" transform="translate(104,368)"/>
<path d="M0 0 C4.26443189 3.76856771 6.36470533 7.15578662 7.1875 12.8125 C6.33800987 18.86511714 4.44160772 22.97887344 -0.375 26.8125 C-4.99403859 29.26943542 -9.12094155 30.08428313 -14.3125 29.375 C-19.60362204 26.62768663 -23.40625244 23.09374267 -25.3125 17.375 C-25.8514234 10.90791918 -25.08654343 7.67906103 -21.3125 2.375 C-14.93641054 -3.68228499 -7.75810204 -3.80586138 0 0 Z " fill="#D2D1CD" transform="translate(449.3125,410.625)"/>
<path d="M0 0 C5.04896704 2.87838308 7.65012026 5.74583601 9.83984375 11.12890625 C10.67201912 16.95413382 9.82780396 20.5261272 6.45703125 25.36328125 C2.78308342 29.37445134 -1.38694916 30.84392654 -6.66015625 31.69140625 C-11.97722776 30.8368769 -16.0066021 28.61424045 -19.5546875 24.51953125 C-22.35620783 20.20340806 -23.12789394 16.09467135 -22.16015625 11.12890625 C-20.33054156 6.31516064 -17.43587417 2.97938486 -13.16015625 0.12890625 C-8.60240631 -1.39034373 -4.47994725 -1.80656101 0 0 Z " fill="#D2D1CC" transform="translate(254.16015625,408.87109375)"/>
<path d="M0 0 C0.80232056 -0.00004028 1.60464111 -0.00008057 2.43127441 -0.00012207 C4.12239443 0.00522359 5.8135146 0.02276578 7.50439453 0.05175781 C10.08573724 0.09362006 12.66446867 0.09282315 15.24609375 0.0859375 C16.89324721 0.09643096 18.54038728 0.10936992 20.1875 0.125 C21.3392572 0.12530212 21.3392572 0.12530212 22.51428223 0.12561035 C27.02599744 0.22473308 30.01087988 0.78722566 33.59375 3.59375 C34.99832737 6.40290474 34.84270157 8.48185534 34.59375 11.59375 C32.81390595 14.7296657 32.07066793 15.43477736 28.59375 16.59375 C23.34255951 16.87064497 18.09179115 16.90714221 12.83398438 16.94384766 C11.09393955 16.96041642 9.35396305 16.98771889 7.61425781 17.02587891 C5.09925214 17.08071881 2.58583593 17.1025286 0.0703125 17.1171875 C-0.70379974 17.13985687 -1.47791199 17.16252625 -2.27548218 17.18588257 C-6.32165937 17.17010093 -8.17461313 16.77539113 -11.39697266 14.24853516 C-13.40625 11.59375 -13.40625 11.59375 -14.03125 8.59375 C-12.4447375 0.97849 -6.89259428 -0.14717412 0 0 Z " fill="#000102" transform="translate(245.40625,367.40625)"/>
<path d="M0 0 C5.28 0 10.56 0 16 0 C16.06903966 4.32392847 16.12871715 8.6459293 16.16479492 12.9699707 C16.17984066 14.43943782 16.20028238 15.90886034 16.22631836 17.37817383 C16.26288955 19.4957177 16.27976801 21.61266565 16.29296875 23.73046875 C16.3086792 25.00301514 16.32438965 26.27556152 16.34057617 27.58666992 C15.85434555 32.45978128 13.74602286 35.87831429 10 39 C7 40 7 40 0 40 C0 26.8 0 13.6 0 0 Z " fill="#B87909" transform="translate(128,280)"/>
<path d="M0 0 C7.92 0 15.84 0 24 0 C24 7.92 24 15.84 24 24 C16.08 24 8.16 24 0 24 C0 16.08 0 8.16 0 0 Z " fill="#ECAB2C" transform="translate(312,352)"/>
<path d="M0 0 C0.93714844 -0.00257813 1.87429688 -0.00515625 2.83984375 -0.0078125 C7.80437377 0.06260637 11.52949427 0.18039685 15.5 3.5 C16.90457737 6.30915474 16.74895157 8.38810534 16.5 11.5 C14.72015595 14.6359157 13.97691793 15.34102736 10.5 16.5 C7.04690178 16.8042547 3.58992872 16.8234943 0.125 16.875 C-0.82117188 16.91238281 -1.76734375 16.94976562 -2.7421875 16.98828125 C-7.46883931 17.04802825 -9.74297641 17.06587514 -13.625 14.1640625 C-15.5 11.5 -15.5 11.5 -16.125 8.5 C-14.28929376 -0.31138993 -7.47902301 -0.22632532 0 0 Z " fill="#000203" transform="translate(263.5,335.5)"/>
<path d="M0 0 C0.48210937 0.90363281 0.96421875 1.80726563 1.4609375 2.73828125 C2.09887865 3.92973017 2.7369039 5.12113406 3.375 6.3125 C3.69210938 6.90740234 4.00921875 7.50230469 4.3359375 8.11523438 C5.79386349 10.83365888 7.28711703 13.43067554 9 16 C-5.19 16 -19.38 16 -34 16 C-15.80811808 -2.19188192 -15.80811808 -2.19188192 0 0 Z " fill="#B67809" transform="translate(217,432)"/>
<path d="M0 0 C10.56 0 21.12 0 32 0 C32 2.64 32 5.28 32 8 C21.44 8 10.88 8 0 8 C0 5.36 0 2.72 0 0 Z " fill="#D78E0C" transform="translate(240,120)"/>
<path d="M0 0 C10.56 0 21.12 0 32 0 C32 2.64 32 5.28 32 8 C21.44 8 10.88 8 0 8 C0 5.36 0 2.72 0 0 Z " fill="#B97A0A" transform="translate(240,96)"/>
<path d="M0 0 C2.97 0 5.94 0 9 0 C9.48210937 0.90363281 9.96421875 1.80726563 10.4609375 2.73828125 C11.09887865 3.92973017 11.7369039 5.12113406 12.375 6.3125 C12.69210937 6.90740234 13.00921875 7.50230469 13.3359375 8.11523438 C14.79386349 10.83365888 16.28711703 13.43067554 18 16 C12.06 16 6.12 16 0 16 C0 10.72 0 5.44 0 0 Z " fill="#D3D2CD" transform="translate(400,432)"/>
</svg>
